<?xml version="1.0" encoding="utf-8"?>
<!-- Generator: Adobe Illustrator 16.0.0, SVG Export Plug-In . SVG Version: 6.00 Build 0)  -->
<!DOCTYPE svg PUBLIC "-//W3C//DTD SVG 1.1//EN" "http://www.w3.org/Graphics/SVG/1.1/DTD/svg11.dtd">
<svg version="1.1" id="Layer_1" xmlns="http://www.w3.org/2000/svg" xmlns:xlink="http://www.w3.org/1999/xlink" x="0px" y="0px"
	 width="678.59863px" height="276.35156px" viewBox="0 0 678.59863 276.35156" enable-background="new 0 0 678.59863 276.35156"
	 xml:space="preserve">
<g>
	<defs>
		<rect id="SVGID_1_" width="678.59863" height="272"/>
	</defs>
	<clipPath id="SVGID_2_">
		<use xlink:href="#SVGID_1_"  overflow="visible"/>
	</clipPath>
	<rect x="549.4668" y="53.01367" clip-path="url(#SVGID_2_)" fill="#FFFFFF" width="127.38379" height="56.5127"/>
	
		<rect x="549.4668" y="53.01367" clip-path="url(#SVGID_2_)" fill="none" stroke="#000000" stroke-width="1.57122" stroke-linecap="round" stroke-linejoin="round" stroke-miterlimit="10" width="127.38379" height="56.5127"/>
	<g clip-path="url(#SVGID_2_)">
		<text transform="matrix(1.00181 0 0 1 576.3457 86.94238)" font-family="'Helvetica-Bold'" font-size="18.83758">Product</text>
	</g>
	<rect x="105.04443" y="53.01367" clip-path="url(#SVGID_2_)" fill="#FFFFFF" width="127.38379" height="56.5127"/>
	
		<rect x="105.04443" y="53.01367" clip-path="url(#SVGID_2_)" fill="none" stroke="#000000" stroke-width="1.57122" stroke-linecap="round" stroke-linejoin="round" stroke-miterlimit="10" width="127.38379" height="56.5127"/>
	<g clip-path="url(#SVGID_2_)">
		<text transform="matrix(1.00181 0 0 1 141.87549 86.94238)" font-family="'Helvetica-Bold'" font-size="18.83758">Order</text>
	</g>
	<path clip-path="url(#SVGID_2_)" fill="#FFFFFF" d="M83.16309,60.95605c2.76367,2.75879,2.76367,7.23145,0,9.99023
		s-7.24414,2.75879-10.00781,0s-2.76367-7.23145,0-9.99023S80.39941,58.19727,83.16309,60.95605"/>
	
		<path clip-path="url(#SVGID_2_)" fill="none" stroke="#000000" stroke-width="1.57122" stroke-linecap="round" stroke-linejoin="round" stroke-miterlimit="10" d="
		M83.16309,60.95605c2.76367,2.75879,2.76367,7.23145,0,9.99023s-7.24414,2.75879-10.00781,0s-2.76367-7.23145,0-9.99023
		S80.39941,58.19727,83.16309,60.95605"/>
	
		<line clip-path="url(#SVGID_2_)" fill="none" stroke="#000000" stroke-width="1.57122" stroke-linecap="round" stroke-linejoin="round" stroke-miterlimit="10" x1="86.02197" y1="65.89258" x2="103.95459" y2="65.75879"/>
	<path clip-path="url(#SVGID_2_)" fill="#FFFFFF" d="M83.01025,88.72656c2.76367,2.75879,2.76367,7.23145,0,9.99023
		s-7.24463,2.75879-10.0083,0s-2.76367-7.23145,0-9.99023S80.24658,85.96777,83.01025,88.72656"/>
	
		<path clip-path="url(#SVGID_2_)" fill="none" stroke="#000000" stroke-width="1.57122" stroke-linecap="round" stroke-linejoin="round" stroke-miterlimit="10" d="
		M83.01025,88.72656c2.76367,2.75879,2.76367,7.23145,0,9.99023s-7.24463,2.75879-10.0083,0s-2.76367-7.23145,0-9.99023
		S80.24658,85.96777,83.01025,88.72656"/>
	
		<line clip-path="url(#SVGID_2_)" fill="none" stroke="#000000" stroke-width="1.57122" stroke-linecap="round" stroke-linejoin="round" stroke-miterlimit="10" x1="85.86914" y1="93.70117" x2="105.04443" y2="93.65234"/>
	
		<line clip-path="url(#SVGID_2_)" fill="none" stroke="#000000" stroke-width="1.57122" stroke-miterlimit="10" x1="0.08301" y1="73.97852" x2="65.62988" y2="73.97852"/>
	<g clip-path="url(#SVGID_2_)">
		<text transform="matrix(1.00181 0 0 1 0.08203 71.62354)" font-family="'Helvetica'" font-size="18.83758">Number</text>
	</g>
	<g clip-path="url(#SVGID_2_)">
		<text transform="matrix(1.00181 0 0 1 26.73633 99.39307)" font-family="'Helvetica'" font-size="18.83758">Date</text>
	</g>
	<path clip-path="url(#SVGID_2_)" fill="#FFFFFF" d="M527.30664,62.00684c2.76367,2.75879,2.76367,7.23145,0,9.99023
		s-7.24512,2.75879-10.00781,0c-2.76465-2.75879-2.76465-7.23145,0-9.99023
		C520.06152,59.24902,524.54297,59.24902,527.30664,62.00684"/>
	
		<path clip-path="url(#SVGID_2_)" fill="none" stroke="#000000" stroke-width="1.57122" stroke-linecap="round" stroke-linejoin="round" stroke-miterlimit="10" d="
		M527.30664,62.00781c2.76367,2.75781,2.76367,7.23047,0,9.99023c-2.76367,2.75781-7.24512,2.75781-10.00781,0
		c-2.76465-2.75977-2.76465-7.23242,0-9.99023C520.06152,59.24902,524.54297,59.24902,527.30664,62.00781"/>
	
		<line clip-path="url(#SVGID_2_)" fill="none" stroke="#000000" stroke-width="1.57122" stroke-linecap="round" stroke-linejoin="round" stroke-miterlimit="10" x1="530.16504" y1="67.05957" x2="548.37695" y2="67.19238"/>
	<path clip-path="url(#SVGID_2_)" fill="#FFFFFF" d="M527.43262,90.15918c2.76367,2.75879,2.76367,7.23242,0,9.99121
		c-2.76367,2.75781-7.24414,2.75781-10.00781,0c-2.76367-2.75879-2.76367-7.23242,0-9.99121
		C520.18848,87.40137,524.66895,87.40137,527.43262,90.15918"/>
	
		<path clip-path="url(#SVGID_2_)" fill="none" stroke="#000000" stroke-width="1.57122" stroke-linecap="round" stroke-linejoin="round" stroke-miterlimit="10" d="
		M527.43262,90.16016c2.76367,2.75879,2.76367,7.23145,0,9.99023s-7.24414,2.75879-10.00781,0s-2.76367-7.23145,0-9.99023
		S524.66895,87.40137,527.43262,90.16016"/>
	
		<line clip-path="url(#SVGID_2_)" fill="none" stroke="#000000" stroke-width="1.57122" stroke-linecap="round" stroke-linejoin="round" stroke-miterlimit="10" x1="530.29199" y1="95.13477" x2="549.4668" y2="95.08594"/>
	<g clip-path="url(#SVGID_2_)">
		<text transform="matrix(1.00181 0 0 1 416.37305 73.05713)" font-family="'Helvetica'" font-size="18.83758">Description</text>
	</g>
	<g clip-path="url(#SVGID_2_)">
		<text transform="matrix(1.00181 0 0 1 468.15625 100.82666)" font-family="'Helvetica'" font-size="18.83758">Price</text>
	</g>
	
		<line clip-path="url(#SVGID_2_)" fill="none" stroke="#000000" stroke-width="1.57122" stroke-linecap="round" stroke-linejoin="round" stroke-miterlimit="10" x1="614.38672" y1="53.01367" x2="614.2666" y2="40.37891"/>
	<path clip-path="url(#SVGID_2_)" fill="#FFFFFF" d="M619.19531,27.53516c2.76465,2.75879,2.76465,7.23145,0,9.99023
		c-2.7627,2.75781-7.24414,2.75781-10.00781,0c-2.76367-2.75879-2.76367-7.23145,0-9.99023S616.43262,24.77637,619.19531,27.53516"
		/>
	
		<path clip-path="url(#SVGID_2_)" fill="none" stroke="#000000" stroke-width="1.57122" stroke-linecap="round" stroke-linejoin="round" stroke-miterlimit="10" d="
		M619.19629,27.53516c2.76367,2.75879,2.76367,7.23145,0,9.99023s-7.24512,2.75879-10.00879,0s-2.76367-7.23145,0-9.99023
		S616.43262,24.77637,619.19629,27.53516"/>
	
		<line clip-path="url(#SVGID_2_)" fill="none" stroke="#000000" stroke-width="1.57122" stroke-miterlimit="10" x1="589.43652" y1="19.62305" x2="632.97949" y2="19.62305"/>
	<g clip-path="url(#SVGID_2_)">
		<text transform="matrix(1.00181 0 0 1 589.43555 17.26807)" font-family="'Helvetica'" font-size="18.83758">Code</text>
	</g>
	<polygon clip-path="url(#SVGID_2_)" fill="#FFFFFF" points="613.15918,160.54492 669.77344,195.86523 613.15918,231.18555 
		556.54395,195.86523 	"/>
	
		<polygon clip-path="url(#SVGID_2_)" fill="none" stroke="#000000" stroke-width="1.57122" stroke-linecap="round" stroke-linejoin="round" stroke-miterlimit="10" points="
		613.15918,160.54492 669.77344,195.86523 613.15918,231.18555 556.54395,195.86523 	"/>
	<g clip-path="url(#SVGID_2_)">
		<text transform="matrix(1.00181 0 0 1 583.83789 200.83203)" font-family="'Helvetica'" font-size="15.69798">Includes</text>
	</g>
	
		<line clip-path="url(#SVGID_2_)" fill="none" stroke="#000000" stroke-width="6.28486" stroke-linejoin="round" stroke-miterlimit="10" x1="225.35107" y1="195.86523" x2="327.28467" y2="195.86523"/>
	
		<line clip-path="url(#SVGID_2_)" fill="none" stroke="#FFFFFF" stroke-width="3.14243" stroke-linejoin="round" stroke-miterlimit="10" x1="225.35107" y1="195.86523" x2="327.28467" y2="195.86523"/>
	
		<line clip-path="url(#SVGID_2_)" fill="none" stroke="#000000" stroke-width="6.28486" stroke-linejoin="round" stroke-miterlimit="10" x1="168.73633" y1="109.52637" x2="168.73633" y2="160.54492"/>
	
		<line clip-path="url(#SVGID_2_)" fill="none" stroke="#FFFFFF" stroke-width="3.14243" stroke-linejoin="round" stroke-miterlimit="10" x1="168.73633" y1="109.52637" x2="168.73633" y2="160.54492"/>
	
		<line clip-path="url(#SVGID_2_)" fill="none" stroke="#000000" stroke-width="6.28486" stroke-linejoin="round" stroke-miterlimit="10" x1="457.81348" y1="195.86523" x2="556.54395" y2="195.86523"/>
	
		<line clip-path="url(#SVGID_2_)" fill="none" stroke="#FFFFFF" stroke-width="3.14243" stroke-linejoin="round" stroke-miterlimit="10" x1="457.81348" y1="195.86523" x2="556.54395" y2="195.86523"/>
	
		<line clip-path="url(#SVGID_2_)" fill="none" stroke="#000000" stroke-width="1.57122" stroke-linecap="round" stroke-linejoin="round" stroke-miterlimit="10" x1="613.15918" y1="109.52637" x2="613.15918" y2="160.54492"/>
	<g clip-path="url(#SVGID_2_)">
		<text transform="matrix(1.00181 0 0 1 548.56348 184.26953)" font-family="'Helvetica'" font-size="18.83758">N</text>
	</g>
	<rect x="327.28516" y="167.6084" clip-path="url(#SVGID_2_)" fill="#FFFFFF" width="127.38281" height="56.5127"/>
	
		<rect x="327.28467" y="167.6084" clip-path="url(#SVGID_2_)" fill="none" stroke="#000000" stroke-width="6.28486" stroke-miterlimit="10" width="127.3833" height="56.5127"/>
	
		<rect x="327.28467" y="167.6084" clip-path="url(#SVGID_2_)" fill="none" stroke="#FFFFFF" stroke-width="3.14243" stroke-miterlimit="10" width="127.3833" height="56.5127"/>
	<g clip-path="url(#SVGID_2_)">
		<text transform="matrix(1.00181 0 0 1 342.09668 201.53711)" font-family="'Helvetica-Bold'" font-size="18.83758">Order Line</text>
	</g>
	<polygon clip-path="url(#SVGID_2_)" fill="#FFFFFF" points="168.73633,160.54492 225.35107,195.86523 168.73633,231.18555 
		112.12158,195.86523 	"/>
	<polygon clip-path="url(#SVGID_2_)" fill="none" stroke="#000000" stroke-width="6.28486" stroke-miterlimit="10" points="
		168.73633,160.54492 225.35107,195.86523 168.73633,231.18555 112.12158,195.86523 	"/>
	<polygon clip-path="url(#SVGID_2_)" fill="none" stroke="#FFFFFF" stroke-width="3.14243" stroke-miterlimit="10" points="
		168.73633,160.54492 225.35107,195.86523 168.73633,231.18555 112.12158,195.86523 	"/>
	<g clip-path="url(#SVGID_2_)">
		<text transform="matrix(1.00181 0 0 1 137.66943 200.83203)" font-family="'Helvetica'" font-size="15.69798">Contains</text>
	</g>
	<g clip-path="url(#SVGID_2_)">
		<text transform="matrix(1.00181 0 0 1 228.56396 184.26953)" font-family="'Helvetica'" font-size="18.83758">N</text>
	</g>
	<g clip-path="url(#SVGID_2_)">
		<text transform="matrix(1.00181 0 0 1 177.94189 155.22852)" font-family="'Helvetica'" font-size="18.83758">1</text>
	</g>
	<g clip-path="url(#SVGID_2_)">
		<text transform="matrix(1.00181 0 0 1 630.8584 156.61719)" font-family="'Helvetica'" font-size="18.83758">1</text>
	</g>
	
		<line clip-path="url(#SVGID_2_)" fill="none" stroke="#000000" stroke-width="1.57122" stroke-linecap="round" stroke-linejoin="round" stroke-miterlimit="10" x1="390.97656" y1="224.12109" x2="390.97656" y2="235.10547"/>
	<path clip-path="url(#SVGID_2_)" fill="#FFFFFF" d="M395.98047,237.95898c2.76367,2.75879,2.76367,7.23145,0,9.99023
		s-7.24414,2.75879-10.00781,0s-2.76367-7.23145,0-9.99023C388.73633,235.20117,393.2168,235.20117,395.98047,237.95898"/>
	
		<path clip-path="url(#SVGID_2_)" fill="none" stroke="#000000" stroke-width="1.57122" stroke-linecap="round" stroke-linejoin="round" stroke-miterlimit="10" d="
		M395.98047,237.95996c2.76367,2.75879,2.76367,7.23145,0,9.99023c-2.76367,2.75781-7.24414,2.75781-10.00781,0
		c-2.76367-2.75879-2.76367-7.23145,0-9.99023S393.2168,235.20117,395.98047,237.95996"/>
	<g clip-path="url(#SVGID_2_)">
		<text transform="matrix(1.00181 0 0 1 354.66992 267.29102)" font-family="'Helvetica'" font-size="18.83758">Quantity</text>
	</g>
</g>
</svg>
