<?xml version="1.0" encoding="utf-8"?>
<!-- Generator: Adobe Illustrator 16.0.0, SVG Export Plug-In . SVG Version: 6.00 Build 0)  -->
<!DOCTYPE svg PUBLIC "-//W3C//DTD SVG 1.1//EN" "http://www.w3.org/Graphics/SVG/1.1/DTD/svg11.dtd">
<svg version="1.1" id="Layer_1" xmlns="http://www.w3.org/2000/svg" xmlns:xlink="http://www.w3.org/1999/xlink" x="0px" y="0px"
	 width="888.99951px" height="404.19092px" viewBox="0 0 888.99951 404.19092" enable-background="new 0 0 888.99951 404.19092"
	 xml:space="preserve">
<g>
	<defs>
		<rect id="SVGID_1_" width="888.99951" height="400.00049"/>
	</defs>
	<clipPath id="SVGID_2_">
		<use xlink:href="#SVGID_1_"  overflow="visible"/>
	</clipPath>
	<rect x="108.8623" y="83.20654" clip-path="url(#SVGID_2_)" fill="#FFFFFF" width="137.9585" height="68.04688"/>
	
		<rect x="108.8623" y="83.20654" clip-path="url(#SVGID_2_)" fill="none" stroke="#000000" stroke-width="1.51316" stroke-linecap="round" stroke-linejoin="round" stroke-miterlimit="10" width="137.9585" height="68.04688"/>
	<g clip-path="url(#SVGID_2_)">
		<text transform="matrix(1.00135 0 0 1 127.23682 123.0708)" font-family="'Helvetica-Bold'" font-size="18.14567">EMPLOYEE</text>
	</g>
	<rect x="102.80566" y="304.31494" clip-path="url(#SVGID_2_)" fill="#FFFFFF" width="149.90381" height="64.51074"/>
	
		<rect x="102.80566" y="304.31592" clip-path="url(#SVGID_2_)" fill="none" stroke="#000000" stroke-width="1.51316" stroke-linecap="round" stroke-linejoin="round" stroke-miterlimit="10" width="149.90381" height="64.50977"/>
	<g clip-path="url(#SVGID_2_)">
		<text transform="matrix(1.00135 0 0 1 134.72412 342.41162)" font-family="'Helvetica-Bold'" font-size="18.14567">PROJECT</text>
	</g>
	<rect x="474.52686" y="306.17139" clip-path="url(#SVGID_2_)" fill="#FFFFFF" width="137.95898" height="64.50977"/>
	
		<rect x="474.52686" y="306.17139" clip-path="url(#SVGID_2_)" fill="none" stroke="#000000" stroke-width="1.51316" stroke-linecap="round" stroke-linejoin="round" stroke-miterlimit="10" width="137.95898" height="64.50977"/>
	<g clip-path="url(#SVGID_2_)">
		<text transform="matrix(1.00135 0 0 1 504.01709 344.26709)" font-family="'Helvetica-Bold'" font-size="18.14567">BRANCH</text>
	</g>
	<rect x="467.9292" y="98.59521" clip-path="url(#SVGID_2_)" fill="#FFFFFF" width="149.90332" height="68.0459"/>
	
		<rect x="467.9292" y="98.59521" clip-path="url(#SVGID_2_)" fill="none" stroke="#000000" stroke-width="6.05264" stroke-miterlimit="10" width="149.90332" height="68.04688"/>
	
		<rect x="467.9292" y="98.59521" clip-path="url(#SVGID_2_)" fill="none" stroke="#FFFFFF" stroke-width="3.02632" stroke-miterlimit="10" width="149.90332" height="68.04688"/>
	<g clip-path="url(#SVGID_2_)">
		<text transform="matrix(1.00135 0 0 1 480.33838 138.45947)"><tspan x="0" y="0" font-family="'Helvetica-Bold'" font-size="18.14567">DE</tspan><tspan x="25.20721" y="0" font-family="'Helvetica-Bold'" font-size="18.14567" letter-spacing="-0.99865">P</tspan><tspan x="35.98563" y="0" font-family="'Helvetica-Bold'" font-size="18.14567">ARTMENT</tspan></text>
	</g>
	<polygon clip-path="url(#SVGID_2_)" fill="#FFFFFF" points="357.8501,82.62354 425.98877,116.646 357.8501,150.66943 
		289.7124,116.646 	"/>
	<polygon clip-path="url(#SVGID_2_)" fill="none" stroke="#000000" stroke-width="1.51316" stroke-miterlimit="10" points="
		357.8501,82.62354 425.98877,116.646 357.8501,150.66943 289.7124,116.646 	"/>
	<g clip-path="url(#SVGID_2_)">
		<text transform="matrix(1.00135 0 0 1 317.43506 121.80713)" font-family="'Helvetica'" font-size="15.12139">Membership</text>
	</g>
	
		<line clip-path="url(#SVGID_2_)" fill="none" stroke="#000000" stroke-width="6.05264" stroke-linejoin="round" stroke-miterlimit="10" x1="425.98877" y1="116.646" x2="467.9292" y2="116.72803"/>
	
		<line clip-path="url(#SVGID_2_)" fill="none" stroke="#FFFFFF" stroke-width="3.02632" stroke-linejoin="round" stroke-miterlimit="10" x1="425.98877" y1="116.646" x2="467.9292" y2="116.72803"/>
	
		<line clip-path="url(#SVGID_2_)" fill="none" stroke="#000000" stroke-width="1.51316" stroke-linecap="round" stroke-linejoin="round" stroke-miterlimit="10" x1="246.8208" y1="117.22998" x2="289.7124" y2="116.646"/>
	<g clip-path="url(#SVGID_2_)">
		<text transform="matrix(1.00135 0 0 1 430.43506 99.63281)" font-family="'Helvetica'" font-size="18.14567">1</text>
	</g>
	<g clip-path="url(#SVGID_2_)">
		<text transform="matrix(1.00135 0 0 1 285.50537 99.63281)" font-family="'Helvetica'" font-size="18.14567">N</text>
	</g>
	<polygon clip-path="url(#SVGID_2_)" fill="#FFFFFF" points="542.8335,202.1626 610.97119,236.18506 542.8335,270.2085 
		474.69482,236.18506 	"/>
	<polygon clip-path="url(#SVGID_2_)" fill="none" stroke="#000000" stroke-width="6.05264" stroke-miterlimit="10" points="
		542.8335,202.1626 610.97119,236.18506 542.8335,270.2085 474.6958,236.18506 	"/>
	<polygon clip-path="url(#SVGID_2_)" fill="none" stroke="#FFFFFF" stroke-width="3.02632" stroke-miterlimit="10" points="
		542.8335,202.1626 610.97119,236.18506 542.8335,270.2085 474.6958,236.18506 	"/>
	<g clip-path="url(#SVGID_2_)">
		<text transform="matrix(1.00135 0 0 1 501.99268 241.34619)" font-family="'Helvetica'" font-size="15.12139">Composition</text>
	</g>
	
		<line clip-path="url(#SVGID_2_)" fill="none" stroke="#000000" stroke-width="6.05264" stroke-linecap="round" stroke-linejoin="round" stroke-miterlimit="10" x1="542.8335" y1="202.1626" x2="542.88037" y2="166.64209"/>
	
		<line clip-path="url(#SVGID_2_)" fill="none" stroke="#FFFFFF" stroke-width="3.02632" stroke-linecap="round" stroke-linejoin="round" stroke-miterlimit="10" x1="542.8335" y1="202.1626" x2="542.88037" y2="166.64209"/>
	
		<line clip-path="url(#SVGID_2_)" fill="none" stroke="#000000" stroke-width="6.05264" stroke-linejoin="round" stroke-miterlimit="10" x1="542.8335" y1="270.2085" x2="543.50635" y2="306.17139"/>
	
		<line clip-path="url(#SVGID_2_)" fill="none" stroke="#FFFFFF" stroke-width="3.02632" stroke-linejoin="round" stroke-miterlimit="10" x1="542.8335" y1="270.2085" x2="543.50635" y2="306.17139"/>
	<g clip-path="url(#SVGID_2_)">
		<text transform="matrix(1.00135 0 0 1 550.38623 202.51221)" font-family="'Helvetica'" font-size="18.14567">N</text>
	</g>
	<polygon clip-path="url(#SVGID_2_)" fill="#FFFFFF" points="177.91602,193.76123 246.0542,227.78467 177.91602,261.80713 
		109.77783,227.78467 	"/>
	<polygon clip-path="url(#SVGID_2_)" fill="none" stroke="#000000" stroke-width="1.51316" stroke-miterlimit="10" points="
		177.91602,193.76123 246.0542,227.78467 177.91602,261.80713 109.77783,227.78467 	"/>
	<g clip-path="url(#SVGID_2_)">
		<text transform="matrix(1.00135 0 0 1 137.49365 232.94482)" font-family="'Helvetica'" font-size="15.12139">Participation</text>
	</g>
	
		<line clip-path="url(#SVGID_2_)" fill="none" stroke="#000000" stroke-width="6.05264" stroke-linejoin="round" stroke-miterlimit="10" x1="177.75732" y1="304.31592" x2="177.91602" y2="261.80713"/>
	
		<line clip-path="url(#SVGID_2_)" fill="none" stroke="#FFFFFF" stroke-width="3.02632" stroke-linejoin="round" stroke-miterlimit="10" x1="177.75732" y1="304.31592" x2="177.91602" y2="261.80713"/>
	<g clip-path="url(#SVGID_2_)">
		<text transform="matrix(1.00135 0 0 1 157.39209 277.85596)" font-family="'Helvetica'" font-size="18.14567">N</text>
	</g>
	<polygon clip-path="url(#SVGID_2_)" fill="#FFFFFF" points="357.00977,3.23193 431.9624,37.25439 357.00977,71.27783 
		282.05811,37.25439 	"/>
	<polygon clip-path="url(#SVGID_2_)" fill="none" stroke="#000000" stroke-width="1.51316" stroke-miterlimit="10" points="
		357.00977,3.23193 431.96143,37.25439 357.00977,71.27783 282.05811,37.25439 	"/>
	<g clip-path="url(#SVGID_2_)">
		<text transform="matrix(1.00135 0 0 1 314.1958 42.41553)" font-family="'Helvetica'" font-size="15.12139">Management</text>
	</g>
	
		<polyline clip-path="url(#SVGID_2_)" fill="none" stroke="#000000" stroke-width="6.05264" stroke-linejoin="round" stroke-miterlimit="10" points="
		542.88037,98.59521 542.88037,83.47412 542.88037,37.25439 447.104,37.25439 431.96143,37.25439 	"/>
	
		<polyline clip-path="url(#SVGID_2_)" fill="none" stroke="#FFFFFF" stroke-width="3.02632" stroke-linejoin="round" stroke-miterlimit="10" points="
		542.88037,98.59521 542.88037,83.47412 542.88037,37.25439 447.104,37.25439 431.96143,37.25439 	"/>
	<path clip-path="url(#SVGID_2_)" fill="#FFFFFF" d="M90.81592,89.7876c2.66113,2.6582,2.66113,6.96582,0,9.62402
		c-2.66113,2.65723-6.9751,2.65723-9.63623,0c-2.66113-2.6582-2.66113-6.96582,0-9.62402
		C83.84082,87.13037,88.15479,87.13037,90.81592,89.7876"/>
	
		<path clip-path="url(#SVGID_2_)" fill="none" stroke="#000000" stroke-width="1.51316" stroke-linecap="round" stroke-linejoin="round" stroke-miterlimit="10" d="
		M90.81592,89.7876c2.66113,2.6582,2.66113,6.96582,0,9.62402c-2.66113,2.65723-6.9751,2.65723-9.63623,0
		c-2.66064-2.6582-2.66064-6.96582,0-9.62402C83.84082,87.13037,88.15479,87.13037,90.81592,89.7876"/>
	
		<line clip-path="url(#SVGID_2_)" fill="none" stroke="#000000" stroke-width="1.51316" stroke-linecap="round" stroke-linejoin="round" stroke-miterlimit="10" x1="93.56885" y1="94.58252" x2="108.8623" y2="94.54834"/>
	
		<line clip-path="url(#SVGID_2_)" fill="none" stroke="#000000" stroke-width="1.51316" stroke-miterlimit="10" x1="27.15918" y1="100.70557" x2="69.08301" y2="100.70557"/>
	<g clip-path="url(#SVGID_2_)">
		<text transform="matrix(1.00135 0 0 1 27.15967 98.43701)" font-family="'Helvetica'" font-size="18.14567">Code</text>
	</g>
	<path clip-path="url(#SVGID_2_)" fill="#FFFFFF" d="M651.37256,112.41846c2.66113,2.65723,2.66113,6.96582,0,9.62305
		c-2.66016,2.65723-6.97461,2.65723-9.63574,0s-2.66113-6.96582,0-9.62305S648.7124,109.76123,651.37256,112.41846"/>
	
		<path clip-path="url(#SVGID_2_)" fill="none" stroke="#000000" stroke-width="1.51316" stroke-linecap="round" stroke-linejoin="round" stroke-miterlimit="10" d="
		M651.37256,112.41846c2.66113,2.65723,2.66113,6.96582,0,9.62305c-2.66016,2.65723-6.97461,2.65723-9.63574,0
		s-2.66113-6.96582,0-9.62305S648.7124,109.76123,651.37256,112.41846"/>
	
		<line clip-path="url(#SVGID_2_)" fill="none" stroke="#000000" stroke-width="1.51316" stroke-linecap="round" stroke-linejoin="round" stroke-miterlimit="10" x1="638.98486" y1="117.32373" x2="617.83252" y2="117.58447"/>
	<g clip-path="url(#SVGID_2_)">
		<text transform="matrix(1.00135 0 0 1 661.7085 119.29053)" font-family="'Helvetica'" font-size="18.14567">Name</text>
	</g>
	<path clip-path="url(#SVGID_2_)" fill="#FFFFFF" d="M393.9624,155.10498c2.66064,2.65723,2.66064,6.96582,0,9.62305
		c-2.66113,2.65723-6.9751,2.65723-9.63623,0s-2.66113-6.96582,0-9.62305S391.30127,152.44775,393.9624,155.10498"/>
	
		<path clip-path="url(#SVGID_2_)" fill="none" stroke="#000000" stroke-width="1.51316" stroke-linecap="round" stroke-linejoin="round" stroke-miterlimit="10" d="
		M393.9624,155.10498c2.66064,2.65723,2.66064,6.96582,0,9.62305c-2.66113,2.65723-6.9751,2.65723-9.63623,0
		s-2.66113-6.96582,0-9.62305S391.30127,152.44775,393.9624,155.10498"/>
	
		<line clip-path="url(#SVGID_2_)" fill="none" stroke="#000000" stroke-width="1.51316" stroke-linecap="round" stroke-linejoin="round" stroke-miterlimit="10" x1="388.64893" y1="152.37158" x2="387.44482" y2="134.03174"/>
	<g clip-path="url(#SVGID_2_)">
		<text transform="matrix(1.00135 0 0 1 356.8999 185.82471)" font-family="'Helvetica'" font-size="18.14567">StartDate</text>
	</g>
	<path clip-path="url(#SVGID_2_)" fill="#FFFFFF" d="M228.81445,264.33838c2.66064,2.65723,2.66064,6.96582,0,9.62305
		c-2.66113,2.65723-6.9751,2.65723-9.63623,0s-2.66113-6.96582,0-9.62305S226.15332,261.68115,228.81445,264.33838"/>
	
		<path clip-path="url(#SVGID_2_)" fill="none" stroke="#000000" stroke-width="1.51316" stroke-linecap="round" stroke-linejoin="round" stroke-miterlimit="10" d="
		M228.81445,264.33838c2.66064,2.65723,2.66064,6.96582,0,9.62305c-2.66113,2.6582-6.9751,2.6582-9.63623,0
		c-2.66113-2.65723-2.66113-6.96582,0-9.62305S226.15332,261.68115,228.81445,264.33838"/>
	
		<line clip-path="url(#SVGID_2_)" fill="none" stroke="#000000" stroke-width="1.51316" stroke-linecap="round" stroke-linejoin="round" stroke-miterlimit="10" x1="223.95215" y1="261.58936" x2="223.81104" y2="237.21631"/>
	<g clip-path="url(#SVGID_2_)">
		<text transform="matrix(1.00135 0 0 1 234.53076 273.3501)" font-family="'Helvetica'" font-size="18.14567">StartDate</text>
	</g>
	<g clip-path="url(#SVGID_2_)">
		<text transform="matrix(1.00135 0 0 1 547.50049 284.58545)" font-family="'Helvetica'" font-size="18.14567">1</text>
	</g>
	
		<line clip-path="url(#SVGID_2_)" fill="none" stroke="#000000" stroke-width="1.51316" stroke-linecap="round" stroke-linejoin="round" stroke-miterlimit="10" x1="177.84277" y1="152.00928" x2="177.91602" y2="193.76123"/>
	<g clip-path="url(#SVGID_2_)">
		<text transform="matrix(1.00135 0 0 1 156.84717 190.69678)" font-family="'Helvetica'" font-size="18.14567">N</text>
	</g>
	<g clip-path="url(#SVGID_2_)">
		<text transform="matrix(1.00135 0 0 1 431.61279 29.48633)" font-family="'Helvetica'" font-size="18.14567">1</text>
	</g>
	
		<polyline clip-path="url(#SVGID_2_)" fill="none" stroke="#000000" stroke-width="1.51316" stroke-linecap="round" stroke-linejoin="round" stroke-miterlimit="10" points="
		282.05811,37.25439 271.45898,37.25439 177.8418,37.25439 177.8418,72.62158 177.8418,83.20654 	"/>
	<g clip-path="url(#SVGID_2_)">
		<text transform="matrix(1.00135 0 0 1 274.94775 29.48633)" font-family="'Helvetica'" font-size="18.14567">1</text>
	</g>
	<path clip-path="url(#SVGID_2_)" fill="#FFFFFF" d="M754.93506,322.01807c2.66113,2.65723,2.66113,6.96582,0,9.62305
		c-2.66016,2.65723-6.97461,2.65723-9.63574,0s-2.66113-6.96582,0-9.62305S752.2749,319.36084,754.93506,322.01807"/>
	
		<path clip-path="url(#SVGID_2_)" fill="none" stroke="#000000" stroke-width="1.51316" stroke-linecap="round" stroke-linejoin="round" stroke-miterlimit="10" d="
		M754.93506,322.01807c2.66113,2.65723,2.66113,6.96582,0,9.62305c-2.66016,2.65723-6.97461,2.65723-9.63574,0
		s-2.66113-6.96582,0-9.62305S752.2749,319.36084,754.93506,322.01807"/>
	
		<line clip-path="url(#SVGID_2_)" fill="none" stroke="#000000" stroke-width="1.51316" stroke-linecap="round" stroke-linejoin="round" stroke-miterlimit="10" x1="743.1499" y1="329.79248" x2="702.6958" y2="346.99756"/>
	<g clip-path="url(#SVGID_2_)">
		<text transform="matrix(1.00135 0 0 1 767.09619 332.67041)" font-family="'Helvetica'" font-size="18.14567">Street</text>
	</g>
	<path clip-path="url(#SVGID_2_)" fill="#FFFFFF" d="M754.93506,353.05615c2.66113,2.65723,2.66113,6.96582,0,9.62305
		c-2.66016,2.65723-6.97461,2.65723-9.63574,0s-2.66113-6.96582,0-9.62305S752.2749,350.39893,754.93506,353.05615"/>
	
		<path clip-path="url(#SVGID_2_)" fill="none" stroke="#000000" stroke-width="1.51316" stroke-linecap="round" stroke-linejoin="round" stroke-miterlimit="10" d="
		M754.93506,353.05615c2.66113,2.65723,2.66113,6.96582,0,9.62305c-2.66016,2.65723-6.97461,2.65723-9.63574,0
		s-2.66113-6.96582,0-9.62305S752.2749,350.39893,754.93506,353.05615"/>
	
		<line clip-path="url(#SVGID_2_)" fill="none" stroke="#000000" stroke-width="1.51316" stroke-linecap="round" stroke-linejoin="round" stroke-miterlimit="10" x1="742.54639" y1="357.86768" x2="712.72119" y2="357.86768"/>
	<g clip-path="url(#SVGID_2_)">
		<text transform="matrix(1.00135 0 0 1 766.57666 363.7085)" font-family="'Helvetica'" font-size="18.14567">House Number</text>
	</g>
	<path clip-path="url(#SVGID_2_)" fill="#FFFFFF" d="M754.93506,384.81104c2.66113,2.65723,2.66113,6.96582,0,9.62305
		c-2.66016,2.65723-6.97461,2.65723-9.63574,0s-2.66113-6.96582,0-9.62305S752.2749,382.15381,754.93506,384.81104"/>
	
		<path clip-path="url(#SVGID_2_)" fill="none" stroke="#000000" stroke-width="1.51316" stroke-linecap="round" stroke-linejoin="round" stroke-miterlimit="10" d="
		M754.93506,384.81104c2.66113,2.65723,2.66113,6.96582,0,9.62305c-2.66016,2.65723-6.97461,2.65723-9.63574,0
		s-2.66113-6.96582,0-9.62305S752.2749,382.15381,754.93506,384.81104"/>
	
		<line clip-path="url(#SVGID_2_)" fill="none" stroke="#000000" stroke-width="1.51316" stroke-linecap="round" stroke-linejoin="round" stroke-miterlimit="10" x1="743.17529" y1="386.60205" x2="702.15771" y2="368.75439"/>
	<g clip-path="url(#SVGID_2_)">
		<text transform="matrix(1.00135 0 0 1 766.8374 395.46338)" font-family="'Helvetica'" font-size="18.14567">ZipCode</text>
	</g>
	<path clip-path="url(#SVGID_2_)" fill="#FFFFFF" d="M652.75928,347.28271h48.75684c5.7666,0,10.44727,4.74219,10.44727,10.58496
		s-4.68066,10.58496-10.44727,10.58496h-48.75684c-5.76758,0-10.44824-4.74219-10.44824-10.58496
		S646.9917,347.28271,652.75928,347.28271"/>
	
		<path clip-path="url(#SVGID_2_)" fill="none" stroke="#000000" stroke-width="1.51316" stroke-linecap="round" stroke-linejoin="round" stroke-miterlimit="10" d="
		M652.75928,347.28271h48.75684c5.7666,0,10.44727,4.74219,10.44727,10.58496s-4.68066,10.58496-10.44727,10.58496h-48.75684
		c-5.76758,0-10.44824-4.74219-10.44824-10.58496S646.9917,347.28271,652.75928,347.28271"/>
	
		<line clip-path="url(#SVGID_2_)" fill="none" stroke="#000000" stroke-width="1.51316" stroke-linecap="round" stroke-linejoin="round" stroke-miterlimit="10" x1="641.56201" y1="357.45166" x2="612.48584" y2="357.11182"/>
	<g clip-path="url(#SVGID_2_)">
		<text transform="matrix(1.00135 0 0 1 643.68701 384.87842)" font-family="'Helvetica'" font-size="18.14567">Address</text>
	</g>
	<path clip-path="url(#SVGID_2_)" fill="#FFFFFF" d="M665.00049,304.62842c2.66113,2.65723,2.66113,6.96582,0,9.62305
		s-6.97559,2.65723-9.63574,0c-2.66113-2.65723-2.66113-6.96582,0-9.62305
		C658.0249,301.97119,662.33936,301.97119,665.00049,304.62842"/>
	
		<path clip-path="url(#SVGID_2_)" fill="none" stroke="#000000" stroke-width="1.51316" stroke-linecap="round" stroke-linejoin="round" stroke-miterlimit="10" d="
		M665.00049,304.62842c2.66113,2.65723,2.66113,6.96582,0,9.62305s-6.97559,2.65723-9.63574,0
		c-2.66113-2.65723-2.66113-6.96582,0-9.62305C658.0249,301.97119,662.33936,301.97119,665.00049,304.62842"/>
	
		<line clip-path="url(#SVGID_2_)" fill="none" stroke="#000000" stroke-width="1.51316" stroke-linecap="round" stroke-linejoin="round" stroke-miterlimit="10" x1="652.68701" y1="310.50928" x2="612.48584" y2="316.24463"/>
	
		<line clip-path="url(#SVGID_2_)" fill="none" stroke="#000000" stroke-width="1.51316" stroke-miterlimit="10" x1="676.76318" y1="316.79346" x2="698.97021" y2="316.79346"/>
	
		<line clip-path="url(#SVGID_2_)" fill="none" stroke="#000000" stroke-width="1.51316" stroke-miterlimit="10" x1="705.146" y1="316.79346" x2="706.54053" y2="316.79346"/>
	<g clip-path="url(#SVGID_2_)">
		<text transform="matrix(1.00135 0 0 1 676.76221 314.5249)" font-family="'Helvetica'" font-size="18.14567">City</text>
	</g>
	
		<line clip-path="url(#SVGID_2_)" fill="none" stroke="#000000" stroke-width="1.51316" stroke-linecap="round" stroke-linejoin="round" stroke-miterlimit="10" x1="636.25439" y1="147.34229" x2="620.05615" y2="147.38818"/>
	<g clip-path="url(#SVGID_2_)">
		<text transform="matrix(1.00135 0 0 1 663.19287 153.15576)" font-family="'Helvetica'" font-size="18.14567">Phone</text>
	</g>
	<path clip-path="url(#SVGID_2_)" fill="#FFFFFF" d="M650.91553,143.08936c2.66016,2.33398,2.66016,6.11621,0,8.4502
		c-2.66113,2.33301-6.97559,2.33301-9.63672,0c-2.66113-2.33398-2.66113-6.11621,0-8.4502
		C643.93994,140.75635,648.25439,140.75635,650.91553,143.08936"/>
	
		<path clip-path="url(#SVGID_2_)" fill="none" stroke="#000000" stroke-width="6.05264" stroke-linecap="round" stroke-linejoin="round" stroke-miterlimit="10" d="
		M650.91553,143.08936c2.66016,2.33398,2.66016,6.11621,0,8.4502c-2.66113,2.33301-6.97559,2.33301-9.63672,0
		c-2.66113-2.33398-2.66113-6.11621,0-8.4502C643.93994,140.75635,648.25439,140.75635,650.91553,143.08936"/>
	
		<path clip-path="url(#SVGID_2_)" fill="none" stroke="#FFFFFF" stroke-width="3.02632" stroke-linecap="round" stroke-linejoin="round" stroke-miterlimit="10" d="
		M650.91553,143.08936c2.66016,2.33398,2.66016,6.11621,0,8.4502c-2.66113,2.33301-6.97559,2.33301-9.63672,0
		c-2.66113-2.33398-2.66113-6.11621,0-8.4502C643.93994,140.75635,648.25439,140.75635,650.91553,143.08936"/>
	<path clip-path="url(#SVGID_2_)" fill="#FFFFFF" d="M84.2124,316.34717c2.66064,2.65723,2.66064,6.96582,0,9.62305
		c-2.66113,2.65723-6.97559,2.65723-9.63623,0c-2.66113-2.65723-2.66113-6.96582,0-9.62305
		C77.23682,313.68994,81.55127,313.68994,84.2124,316.34717"/>
	
		<path clip-path="url(#SVGID_2_)" fill="none" stroke="#000000" stroke-width="1.51316" stroke-linecap="round" stroke-linejoin="round" stroke-miterlimit="10" d="
		M84.21191,316.34717c2.66113,2.65723,2.66113,6.96582,0,9.62305c-2.66064,2.6582-6.9751,2.6582-9.63574,0
		c-2.66113-2.65723-2.66113-6.96582,0-9.62305C77.23682,313.68994,81.55127,313.68994,84.21191,316.34717"/>
	
		<line clip-path="url(#SVGID_2_)" fill="none" stroke="#000000" stroke-width="1.51316" stroke-linecap="round" stroke-linejoin="round" stroke-miterlimit="10" x1="86.96436" y1="321.271" x2="102.04834" y2="321.49463"/>
	
		<line clip-path="url(#SVGID_2_)" fill="none" stroke="#000000" stroke-width="1.51316" stroke-miterlimit="10" x1="18.04004" y1="329.05811" x2="64.99414" y2="329.05811"/>
	<g clip-path="url(#SVGID_2_)">
		<text transform="matrix(1.00135 0 0 1 18.03955 326.78955)" font-family="'Helvetica'" font-size="18.14567">Name</text>
	</g>
	<path clip-path="url(#SVGID_2_)" fill="#FFFFFF" d="M84.26123,348.9292c2.66113,2.65723,2.66113,6.96582,0,9.62305
		c-2.66064,2.65723-6.9751,2.65723-9.63574,0c-2.66113-2.65723-2.66113-6.96582,0-9.62305
		C77.28613,346.27197,81.60059,346.27197,84.26123,348.9292"/>
	
		<path clip-path="url(#SVGID_2_)" fill="none" stroke="#000000" stroke-width="1.51316" stroke-linecap="round" stroke-linejoin="round" stroke-miterlimit="10" d="
		M84.26172,348.9292c2.66064,2.65723,2.66064,6.96582,0,9.62305c-2.66113,2.65723-6.97559,2.65723-9.63623,0
		c-2.66113-2.65723-2.66113-6.96582,0-9.62305C77.28613,346.27197,81.60059,346.27197,84.26172,348.9292"/>
	
		<line clip-path="url(#SVGID_2_)" fill="none" stroke="#000000" stroke-width="1.51316" stroke-linecap="round" stroke-linejoin="round" stroke-miterlimit="10" x1="87.01318" y1="353.61963" x2="102.04834" y2="353.37939"/>
	<g clip-path="url(#SVGID_2_)">
		<text transform="matrix(1.00135 0 0 1 11.33057 360.37256)" font-family="'Helvetica'" font-size="18.14567">Budget</text>
	</g>
	<path clip-path="url(#SVGID_2_)" fill="#FFFFFF" d="M283.42725,317.52686c2.66064,2.65723,2.66064,6.96582,0,9.62305
		c-2.66113,2.65723-6.97559,2.65723-9.63623,0c-2.66113-2.65723-2.66113-6.96582,0-9.62305
		C276.45166,314.86963,280.76611,314.86963,283.42725,317.52686"/>
	
		<path clip-path="url(#SVGID_2_)" fill="none" stroke="#000000" stroke-width="1.51316" stroke-linecap="round" stroke-linejoin="round" stroke-miterlimit="10" d="
		M283.42725,317.52686c2.66064,2.65723,2.66064,6.96582,0,9.62305c-2.66113,2.65723-6.9751,2.65723-9.63623,0
		s-2.66113-6.96582,0-9.62305S280.76611,314.86963,283.42725,317.52686"/>
	
		<line clip-path="url(#SVGID_2_)" fill="none" stroke="#000000" stroke-width="1.51316" stroke-linecap="round" stroke-linejoin="round" stroke-miterlimit="10" x1="271.03809" y1="322.33252" x2="253.46631" y2="322.31787"/>
	<g clip-path="url(#SVGID_2_)">
		<text transform="matrix(1.00135 0 0 1 290.02783 328.51123)" font-family="'Helvetica'" font-size="18.14567">Release Date</text>
	</g>
	<g clip-path="url(#SVGID_2_)">
		<text transform="matrix(1.00135 0 0 1 403.26416 328.97021)" font-family="'Helvetica'" font-size="18.14567">(0,1)</text>
	</g>
	<path clip-path="url(#SVGID_2_)" fill="#FFFFFF" d="M90.26904,112.82275c2.66064,2.65723,2.66064,6.96582,0,9.62305
		c-2.66113,2.65723-6.97559,2.65723-9.63623,0c-2.66113-2.65723-2.66113-6.96582,0-9.62305
		C83.29346,110.16553,87.60791,110.16553,90.26904,112.82275"/>
	
		<path clip-path="url(#SVGID_2_)" fill="none" stroke="#000000" stroke-width="1.51316" stroke-linecap="round" stroke-linejoin="round" stroke-miterlimit="10" d="
		M90.26904,112.82275c2.66064,2.65723,2.66064,6.96582,0,9.62305c-2.66113,2.65723-6.97559,2.65723-9.63623,0
		c-2.66113-2.65723-2.66113-6.96582,0-9.62305C83.29346,110.16553,87.60791,110.16553,90.26904,112.82275"/>
	
		<line clip-path="url(#SVGID_2_)" fill="none" stroke="#000000" stroke-width="1.51316" stroke-linecap="round" stroke-linejoin="round" stroke-miterlimit="10" x1="93.02051" y1="117.50342" x2="108.10547" y2="117.24365"/>
	<g clip-path="url(#SVGID_2_)">
		<text transform="matrix(1.00135 0 0 1 0.23291 122.66748)" font-family="'Helvetica'" font-size="18.14567">Surname</text>
	</g>
	<path clip-path="url(#SVGID_2_)" fill="#FFFFFF" d="M89.38916,135.85693c2.66064,2.6582,2.66064,6.96582,0,9.62402
		c-2.66113,2.65723-6.9751,2.65723-9.63623,0c-2.66113-2.6582-2.66113-6.96582,0-9.62402
		C82.41406,133.19971,86.72803,133.19971,89.38916,135.85693"/>
	
		<path clip-path="url(#SVGID_2_)" fill="none" stroke="#000000" stroke-width="1.51316" stroke-linecap="round" stroke-linejoin="round" stroke-miterlimit="10" d="
		M89.38916,135.85791c2.66064,2.65723,2.66064,6.96484,0,9.62305c-2.66113,2.65723-6.9751,2.65723-9.63623,0
		c-2.66113-2.6582-2.66113-6.96582,0-9.62305C82.41406,133.19971,86.72803,133.19971,89.38916,135.85791"/>
	
		<line clip-path="url(#SVGID_2_)" fill="none" stroke="#000000" stroke-width="1.51316" stroke-linecap="round" stroke-linejoin="round" stroke-miterlimit="10" x1="92.13818" y1="140.43311" x2="108.8623" y2="139.9126"/>
	<g clip-path="url(#SVGID_2_)">
		<text transform="matrix(1.00135 0 0 1 39.66553 145.70264)" font-family="'Helvetica'" font-size="18.14567">Age</text>
	</g>
	
		<line clip-path="url(#SVGID_2_)" fill="none" stroke="#000000" stroke-width="1.51316" stroke-linecap="round" stroke-linejoin="round" stroke-miterlimit="10" x1="662.57568" y1="124.03467" x2="668.16846" y2="124.03467"/>
	
		<line clip-path="url(#SVGID_2_)" fill="none" stroke="#000000" stroke-width="1.51316" stroke-linecap="round" stroke-linejoin="round" stroke-miterlimit="10" x1="672.50342" y1="124.03467" x2="678.09619" y2="124.03467"/>
	
		<line clip-path="url(#SVGID_2_)" fill="none" stroke="#000000" stroke-width="1.51316" stroke-linecap="round" stroke-linejoin="round" stroke-miterlimit="10" x1="682.43115" y1="124.03467" x2="688.02393" y2="124.03467"/>
	
		<line clip-path="url(#SVGID_2_)" fill="none" stroke="#000000" stroke-width="1.51316" stroke-linecap="round" stroke-linejoin="round" stroke-miterlimit="10" x1="692.35889" y1="124.03467" x2="697.95166" y2="124.03467"/>
	
		<line clip-path="url(#SVGID_2_)" fill="none" stroke="#000000" stroke-width="1.51316" stroke-linecap="round" stroke-linejoin="round" stroke-miterlimit="10" x1="702.28662" y1="124.03467" x2="707.87939" y2="124.03467"/>
</g>
</svg>
