<?xml version="1.0" encoding="utf-8"?>
<!-- Generator: Adobe Illustrator 16.0.0, SVG Export Plug-In . SVG Version: 6.00 Build 0)  -->
<!DOCTYPE svg PUBLIC "-//W3C//DTD SVG 1.1//EN" "http://www.w3.org/Graphics/SVG/1.1/DTD/svg11.dtd">
<svg version="1.1" id="Layer_1" xmlns="http://www.w3.org/2000/svg" xmlns:xlink="http://www.w3.org/1999/xlink" x="0px" y="0px"
	 width="889px" height="404.19141px" viewBox="0 0 889 404.19141" enable-background="new 0 0 889 404.19141" xml:space="preserve">
<g>
	<defs>
		<rect id="SVGID_1_" width="889" height="400"/>
	</defs>
	<clipPath id="SVGID_2_">
		<use xlink:href="#SVGID_1_"  overflow="visible"/>
	</clipPath>
	<rect x="108.8623" y="83.20654" clip-path="url(#SVGID_2_)" fill="#FFFFFF" width="137.9585" height="68.04688"/>
	
		<rect x="108.8623" y="83.20654" clip-path="url(#SVGID_2_)" fill="none" stroke="#000000" stroke-width="1.51316" stroke-linecap="round" stroke-linejoin="round" stroke-miterlimit="10" width="137.9585" height="68.04688"/>
	<g clip-path="url(#SVGID_2_)">
		<text transform="matrix(1.00135 0 0 1 127.23682 123.0708)" font-family="'Helvetica-Bold'" font-size="18.14567">EMPLOYEE</text>
	</g>
	<rect x="102.80566" y="304.31445" clip-path="url(#SVGID_2_)" fill="#FFFFFF" width="149.90381" height="64.51172"/>
	
		<rect x="102.80566" y="304.31641" clip-path="url(#SVGID_2_)" fill="none" stroke="#000000" stroke-width="1.51316" stroke-linecap="round" stroke-linejoin="round" stroke-miterlimit="10" width="149.90381" height="64.50977"/>
	<g clip-path="url(#SVGID_2_)">
		<text transform="matrix(1.00135 0 0 1 134.72412 342.41211)" font-family="'Helvetica-Bold'" font-size="18.14567">PROJECT</text>
	</g>
	<rect x="474.52734" y="306.17188" clip-path="url(#SVGID_2_)" fill="#FFFFFF" width="137.95898" height="64.50977"/>
	
		<rect x="474.52734" y="306.17188" clip-path="url(#SVGID_2_)" fill="none" stroke="#000000" stroke-width="1.51316" stroke-linecap="round" stroke-linejoin="round" stroke-miterlimit="10" width="137.95898" height="64.50977"/>
	<g clip-path="url(#SVGID_2_)">
		<text transform="matrix(1.00135 0 0 1 504.01758 344.26758)" font-family="'Helvetica-Bold'" font-size="18.14567">BRANCH</text>
	</g>
	<rect x="467.92969" y="98.59521" clip-path="url(#SVGID_2_)" fill="#FFFFFF" width="149.90234" height="68.0459"/>
	
		<rect x="467.92969" y="98.59521" clip-path="url(#SVGID_2_)" fill="none" stroke="#000000" stroke-width="6.05264" stroke-miterlimit="10" width="149.90234" height="68.04688"/>
	
		<rect x="467.92969" y="98.59521" clip-path="url(#SVGID_2_)" fill="none" stroke="#FFFFFF" stroke-width="3.02632" stroke-miterlimit="10" width="149.90234" height="68.04688"/>
	<g clip-path="url(#SVGID_2_)">
		<text transform="matrix(1.00135 0 0 1 480.33789 138.45947)"><tspan x="0" y="0" font-family="'Helvetica-Bold'" font-size="18.14567">DE</tspan><tspan x="25.20819" y="0" font-family="'Helvetica-Bold'" font-size="18.14567" letter-spacing="-0.99865">P</tspan><tspan x="35.9866" y="0" font-family="'Helvetica-Bold'" font-size="18.14567">ARTMENT</tspan></text>
	</g>
	<polygon clip-path="url(#SVGID_2_)" fill="#FFFFFF" points="357.8501,82.62354 425.98828,116.646 357.8501,150.66943 
		289.7124,116.646 	"/>
	<polygon clip-path="url(#SVGID_2_)" fill="none" stroke="#000000" stroke-width="1.51316" stroke-miterlimit="10" points="
		357.8501,82.62354 425.98828,116.646 357.8501,150.66943 289.7124,116.646 	"/>
	<g clip-path="url(#SVGID_2_)">
		<text transform="matrix(1.00135 0 0 1 317.43506 121.80713)" font-family="'Helvetica'" font-size="15.12139">Membership</text>
	</g>
	
		<line clip-path="url(#SVGID_2_)" fill="none" stroke="#000000" stroke-width="6.05264" stroke-linejoin="round" stroke-miterlimit="10" x1="425.98828" y1="116.646" x2="467.92969" y2="116.72803"/>
	
		<line clip-path="url(#SVGID_2_)" fill="none" stroke="#FFFFFF" stroke-width="3.02632" stroke-linejoin="round" stroke-miterlimit="10" x1="425.98828" y1="116.646" x2="467.92969" y2="116.72803"/>
	
		<line clip-path="url(#SVGID_2_)" fill="none" stroke="#000000" stroke-width="1.51316" stroke-linecap="round" stroke-linejoin="round" stroke-miterlimit="10" x1="246.8208" y1="117.22998" x2="289.7124" y2="116.646"/>
	<g clip-path="url(#SVGID_2_)">
		<text transform="matrix(1.00135 0 0 1 430.43555 99.63281)" font-family="'Helvetica'" font-size="18.14567">1</text>
	</g>
	<g clip-path="url(#SVGID_2_)">
		<text transform="matrix(1.00135 0 0 1 285.50537 99.63281)" font-family="'Helvetica'" font-size="18.14567">N</text>
	</g>
	<polygon clip-path="url(#SVGID_2_)" fill="#FFFFFF" points="542.83398,202.1626 610.9707,236.18506 542.83398,270.2085 
		474.69531,236.18506 	"/>
	<polygon clip-path="url(#SVGID_2_)" fill="none" stroke="#000000" stroke-width="6.05264" stroke-miterlimit="10" points="
		542.83398,202.1626 610.9707,236.18506 542.83398,270.2085 474.69531,236.18506 	"/>
	<polygon clip-path="url(#SVGID_2_)" fill="none" stroke="#FFFFFF" stroke-width="3.02632" stroke-miterlimit="10" points="
		542.83398,202.1626 610.9707,236.18506 542.83398,270.2085 474.69531,236.18506 	"/>
	<g clip-path="url(#SVGID_2_)">
		<text transform="matrix(1.00135 0 0 1 501.99219 241.34619)" font-family="'Helvetica'" font-size="15.12139">Composition</text>
	</g>
	
		<line clip-path="url(#SVGID_2_)" fill="none" stroke="#000000" stroke-width="6.05264" stroke-linecap="round" stroke-linejoin="round" stroke-miterlimit="10" x1="542.83398" y1="202.1626" x2="542.88086" y2="166.64209"/>
	
		<line clip-path="url(#SVGID_2_)" fill="none" stroke="#FFFFFF" stroke-width="3.02632" stroke-linecap="round" stroke-linejoin="round" stroke-miterlimit="10" x1="542.83398" y1="202.1626" x2="542.88086" y2="166.64209"/>
	
		<line clip-path="url(#SVGID_2_)" fill="none" stroke="#000000" stroke-width="6.05264" stroke-linejoin="round" stroke-miterlimit="10" x1="542.83398" y1="270.2085" x2="543.50586" y2="306.17188"/>
	
		<line clip-path="url(#SVGID_2_)" fill="none" stroke="#FFFFFF" stroke-width="3.02632" stroke-linejoin="round" stroke-miterlimit="10" x1="542.83398" y1="270.2085" x2="543.50586" y2="306.17188"/>
	<g clip-path="url(#SVGID_2_)">
		<text transform="matrix(1.00135 0 0 1 550.38672 202.51221)" font-family="'Helvetica'" font-size="18.14567">N</text>
	</g>
	<polygon clip-path="url(#SVGID_2_)" fill="#FFFFFF" points="177.91602,193.76123 246.0542,227.78467 177.91602,261.80713 
		109.77783,227.78467 	"/>
	<polygon clip-path="url(#SVGID_2_)" fill="none" stroke="#000000" stroke-width="1.51316" stroke-miterlimit="10" points="
		177.91602,193.76123 246.0542,227.78467 177.91602,261.80713 109.77783,227.78467 	"/>
	<g clip-path="url(#SVGID_2_)">
		<text transform="matrix(1.00135 0 0 1 137.49414 232.94482)" font-family="'Helvetica'" font-size="15.12139">Participation</text>
	</g>
	
		<line clip-path="url(#SVGID_2_)" fill="none" stroke="#000000" stroke-width="6.05264" stroke-linejoin="round" stroke-miterlimit="10" x1="177.75732" y1="304.31641" x2="177.91602" y2="261.80713"/>
	
		<line clip-path="url(#SVGID_2_)" fill="none" stroke="#FFFFFF" stroke-width="3.02632" stroke-linejoin="round" stroke-miterlimit="10" x1="177.75732" y1="304.31641" x2="177.91602" y2="261.80713"/>
	<g clip-path="url(#SVGID_2_)">
		<text transform="matrix(1.00135 0 0 1 157.39258 277.85596)" font-family="'Helvetica'" font-size="18.14567">N</text>
	</g>
	<polygon clip-path="url(#SVGID_2_)" fill="#FFFFFF" points="357.00977,3.23193 431.96289,37.25439 357.00977,71.27783 
		282.05811,37.25439 	"/>
	<polygon clip-path="url(#SVGID_2_)" fill="none" stroke="#000000" stroke-width="1.51316" stroke-miterlimit="10" points="
		357.00977,3.23193 431.96094,37.25439 357.00977,71.27783 282.05811,37.25439 	"/>
	<g clip-path="url(#SVGID_2_)">
		<text transform="matrix(1.00135 0 0 1 314.1958 42.41553)" font-family="'Helvetica'" font-size="15.12139">Management</text>
	</g>
	
		<polyline clip-path="url(#SVGID_2_)" fill="none" stroke="#000000" stroke-width="6.05264" stroke-linejoin="round" stroke-miterlimit="10" points="
		542.88086,98.59521 542.88086,83.47412 542.88086,37.25439 447.10352,37.25439 431.96094,37.25439 	"/>
	
		<polyline clip-path="url(#SVGID_2_)" fill="none" stroke="#FFFFFF" stroke-width="3.02632" stroke-linejoin="round" stroke-miterlimit="10" points="
		542.88086,98.59521 542.88086,83.47412 542.88086,37.25439 447.10352,37.25439 431.96094,37.25439 	"/>
	<path clip-path="url(#SVGID_2_)" fill="#FFFFFF" d="M90.81592,89.7876c2.66113,2.6582,2.66113,6.96582,0,9.62402
		c-2.66113,2.65723-6.9751,2.65723-9.63623,0c-2.66113-2.6582-2.66113-6.96582,0-9.62402
		C83.84082,87.13037,88.15479,87.13037,90.81592,89.7876"/>
	
		<path clip-path="url(#SVGID_2_)" fill="none" stroke="#000000" stroke-width="1.51316" stroke-linecap="round" stroke-linejoin="round" stroke-miterlimit="10" d="
		M90.81592,89.7876c2.66113,2.6582,2.66113,6.96582,0,9.62402c-2.66113,2.65723-6.9751,2.65723-9.63623,0
		c-2.66064-2.6582-2.66064-6.96582,0-9.62402C83.84082,87.13037,88.15479,87.13037,90.81592,89.7876"/>
	
		<line clip-path="url(#SVGID_2_)" fill="none" stroke="#000000" stroke-width="1.51316" stroke-linecap="round" stroke-linejoin="round" stroke-miterlimit="10" x1="93.56885" y1="94.58252" x2="108.8623" y2="94.54834"/>
	
		<line clip-path="url(#SVGID_2_)" fill="none" stroke="#000000" stroke-width="1.51316" stroke-miterlimit="10" x1="27.15918" y1="100.70557" x2="69.08301" y2="100.70557"/>
	<g clip-path="url(#SVGID_2_)">
		<text transform="matrix(1.00135 0 0 1 27.15967 98.43701)" font-family="'Helvetica'" font-size="18.14567">Code</text>
	</g>
	<path clip-path="url(#SVGID_2_)" fill="#FFFFFF" d="M651.37305,112.41846c2.66016,2.65723,2.66016,6.96582,0,9.62305
		s-6.97461,2.65723-9.63672,0c-2.66016-2.65723-2.66016-6.96582,0-9.62305
		C644.39844,109.76123,648.71289,109.76123,651.37305,112.41846"/>
	
		<path clip-path="url(#SVGID_2_)" fill="none" stroke="#000000" stroke-width="1.51316" stroke-linecap="round" stroke-linejoin="round" stroke-miterlimit="10" d="
		M651.37305,112.41846c2.66016,2.65723,2.66016,6.96582,0,9.62305s-6.97461,2.65723-9.63672,0
		c-2.66016-2.65723-2.66016-6.96582,0-9.62305C644.39844,109.76123,648.71289,109.76123,651.37305,112.41846"/>
	
		<line clip-path="url(#SVGID_2_)" fill="none" stroke="#000000" stroke-width="1.51316" stroke-linecap="round" stroke-linejoin="round" stroke-miterlimit="10" x1="638.98438" y1="117.32373" x2="617.83203" y2="117.58447"/>
	<g clip-path="url(#SVGID_2_)">
		<text transform="matrix(1.00135 0 0 1 661.70898 119.29053)" font-family="'Helvetica'" font-size="18.14567">Name</text>
	</g>
	<path clip-path="url(#SVGID_2_)" fill="#FFFFFF" d="M393.96289,155.10498c2.66016,2.65723,2.66016,6.96582,0,9.62305
		c-2.66211,2.65723-6.97559,2.65723-9.63672,0s-2.66113-6.96582,0-9.62305S391.30078,152.44775,393.96289,155.10498"/>
	
		<path clip-path="url(#SVGID_2_)" fill="none" stroke="#000000" stroke-width="1.51316" stroke-linecap="round" stroke-linejoin="round" stroke-miterlimit="10" d="
		M393.96289,155.10498c2.66016,2.65723,2.66016,6.96582,0,9.62305c-2.66211,2.65723-6.97559,2.65723-9.63672,0
		s-2.66113-6.96582,0-9.62305S391.30078,152.44775,393.96289,155.10498"/>
	
		<line clip-path="url(#SVGID_2_)" fill="none" stroke="#000000" stroke-width="1.51316" stroke-linecap="round" stroke-linejoin="round" stroke-miterlimit="10" x1="388.64844" y1="152.37158" x2="387.44531" y2="134.03174"/>
	<g clip-path="url(#SVGID_2_)">
		<text transform="matrix(1.00135 0 0 1 356.90039 185.82471)" font-family="'Helvetica'" font-size="18.14567">StartDate</text>
	</g>
	<path clip-path="url(#SVGID_2_)" fill="#FFFFFF" d="M228.81445,264.33838c2.66064,2.65723,2.66064,6.96582,0,9.62305
		c-2.66113,2.65723-6.9751,2.65723-9.63623,0s-2.66113-6.96582,0-9.62305S226.15332,261.68115,228.81445,264.33838"/>
	
		<path clip-path="url(#SVGID_2_)" fill="none" stroke="#000000" stroke-width="1.51316" stroke-linecap="round" stroke-linejoin="round" stroke-miterlimit="10" d="
		M228.81445,264.33838c2.66064,2.65723,2.66064,6.96582,0,9.62305c-2.66113,2.6582-6.9751,2.6582-9.63623,0
		c-2.66113-2.65723-2.66113-6.96582,0-9.62305S226.15332,261.68115,228.81445,264.33838"/>
	
		<line clip-path="url(#SVGID_2_)" fill="none" stroke="#000000" stroke-width="1.51316" stroke-linecap="round" stroke-linejoin="round" stroke-miterlimit="10" x1="223.95215" y1="261.58936" x2="223.81104" y2="237.21631"/>
	<g clip-path="url(#SVGID_2_)">
		<text transform="matrix(1.00135 0 0 1 234.53125 273.3501)" font-family="'Helvetica'" font-size="18.14567">StartDate</text>
	</g>
	<g clip-path="url(#SVGID_2_)">
		<text transform="matrix(1.00135 0 0 1 547.5 284.58594)" font-family="'Helvetica'" font-size="18.14567">1</text>
	</g>
	
		<line clip-path="url(#SVGID_2_)" fill="none" stroke="#000000" stroke-width="1.51316" stroke-linecap="round" stroke-linejoin="round" stroke-miterlimit="10" x1="177.84277" y1="152.00928" x2="177.91602" y2="193.76123"/>
	<g clip-path="url(#SVGID_2_)">
		<text transform="matrix(1.00135 0 0 1 156.84766 190.69678)" font-family="'Helvetica'" font-size="18.14567">N</text>
	</g>
	<g clip-path="url(#SVGID_2_)">
		<text transform="matrix(1.00135 0 0 1 431.61328 29.48633)" font-family="'Helvetica'" font-size="18.14567">1</text>
	</g>
	
		<polyline clip-path="url(#SVGID_2_)" fill="none" stroke="#000000" stroke-width="1.51316" stroke-linecap="round" stroke-linejoin="round" stroke-miterlimit="10" points="
		282.05811,37.25439 271.45898,37.25439 177.8418,37.25439 177.8418,72.62158 177.8418,83.20654 	"/>
	<g clip-path="url(#SVGID_2_)">
		<text transform="matrix(1.00135 0 0 1 274.94775 29.48633)" font-family="'Helvetica'" font-size="18.14567">1</text>
	</g>
	<path clip-path="url(#SVGID_2_)" fill="#FFFFFF" d="M754.93555,322.01758c2.66016,2.6582,2.66016,6.9668,0,9.62305
		c-2.66016,2.6582-6.97461,2.6582-9.63672,0c-2.66016-2.65625-2.66016-6.96484,0-9.62305
		C747.96094,319.36133,752.27539,319.36133,754.93555,322.01758"/>
	
		<path clip-path="url(#SVGID_2_)" fill="none" stroke="#000000" stroke-width="1.51316" stroke-linecap="round" stroke-linejoin="round" stroke-miterlimit="10" d="
		M754.93555,322.01758c2.66016,2.6582,2.66016,6.9668,0,9.62305c-2.66016,2.6582-6.97461,2.6582-9.63672,0
		c-2.66016-2.65625-2.66016-6.96484,0-9.62305C747.96094,319.36133,752.27539,319.36133,754.93555,322.01758"/>
	
		<line clip-path="url(#SVGID_2_)" fill="none" stroke="#000000" stroke-width="1.51316" stroke-linecap="round" stroke-linejoin="round" stroke-miterlimit="10" x1="743.15039" y1="329.79297" x2="702.69531" y2="346.99805"/>
	<g clip-path="url(#SVGID_2_)">
		<text transform="matrix(1.00135 0 0 1 767.09668 332.66992)" font-family="'Helvetica'" font-size="18.14567">Street</text>
	</g>
	<path clip-path="url(#SVGID_2_)" fill="#FFFFFF" d="M754.93555,353.05664c2.66016,2.65625,2.66016,6.96484,0,9.62305
		c-2.66016,2.65625-6.97461,2.65625-9.63672,0c-2.66016-2.6582-2.66016-6.9668,0-9.62305
		C747.96094,350.39844,752.27539,350.39844,754.93555,353.05664"/>
	
		<path clip-path="url(#SVGID_2_)" fill="none" stroke="#000000" stroke-width="1.51316" stroke-linecap="round" stroke-linejoin="round" stroke-miterlimit="10" d="
		M754.93555,353.05664c2.66016,2.65625,2.66016,6.96484,0,9.62305c-2.66016,2.65625-6.97461,2.65625-9.63672,0
		c-2.66016-2.6582-2.66016-6.9668,0-9.62305C747.96094,350.39844,752.27539,350.39844,754.93555,353.05664"/>
	
		<line clip-path="url(#SVGID_2_)" fill="none" stroke="#000000" stroke-width="1.51316" stroke-linecap="round" stroke-linejoin="round" stroke-miterlimit="10" x1="742.54688" y1="357.86719" x2="712.7207" y2="357.86719"/>
	<g clip-path="url(#SVGID_2_)">
		<text transform="matrix(1.00135 0 0 1 766.57715 363.70898)" font-family="'Helvetica'" font-size="18.14567">House Number</text>
	</g>
	<path clip-path="url(#SVGID_2_)" fill="#FFFFFF" d="M754.93555,384.81055c2.66016,2.6582,2.66016,6.9668,0,9.62305
		c-2.66016,2.6582-6.97461,2.6582-9.63672,0c-2.66016-2.65625-2.66016-6.96484,0-9.62305
		C747.96094,382.1543,752.27539,382.1543,754.93555,384.81055"/>
	
		<path clip-path="url(#SVGID_2_)" fill="none" stroke="#000000" stroke-width="1.51316" stroke-linecap="round" stroke-linejoin="round" stroke-miterlimit="10" d="
		M754.93555,384.81055c2.66016,2.6582,2.66016,6.9668,0,9.62305c-2.66016,2.6582-6.97461,2.6582-9.63672,0
		c-2.66016-2.65625-2.66016-6.96484,0-9.62305C747.96094,382.1543,752.27539,382.1543,754.93555,384.81055"/>
	
		<line clip-path="url(#SVGID_2_)" fill="none" stroke="#000000" stroke-width="1.51316" stroke-linecap="round" stroke-linejoin="round" stroke-miterlimit="10" x1="743.17578" y1="386.60156" x2="702.1582" y2="368.75391"/>
	<g clip-path="url(#SVGID_2_)">
		<text transform="matrix(1.00135 0 0 1 766.83789 395.46289)" font-family="'Helvetica'" font-size="18.14567">ZipCode</text>
	</g>
	<path clip-path="url(#SVGID_2_)" fill="#FFFFFF" d="M652.75977,347.2832h48.75586c5.76758,0,10.44727,4.74219,10.44727,10.58398
		c0,5.84375-4.67969,10.58594-10.44727,10.58594h-48.75586c-5.76758,0-10.44922-4.74219-10.44922-10.58594
		C642.31055,352.02539,646.99219,347.2832,652.75977,347.2832"/>
	
		<path clip-path="url(#SVGID_2_)" fill="none" stroke="#000000" stroke-width="1.51316" stroke-linecap="round" stroke-linejoin="round" stroke-miterlimit="10" d="
		M652.75977,347.2832h48.75586c5.76758,0,10.44727,4.74219,10.44727,10.58398c0,5.84375-4.67969,10.58594-10.44727,10.58594
		h-48.75586c-5.76758,0-10.44922-4.74219-10.44922-10.58594C642.31055,352.02539,646.99219,347.2832,652.75977,347.2832"/>
	
		<line clip-path="url(#SVGID_2_)" fill="none" stroke="#000000" stroke-width="1.51316" stroke-linecap="round" stroke-linejoin="round" stroke-miterlimit="10" x1="641.5625" y1="357.45117" x2="612.48633" y2="357.11133"/>
	<g clip-path="url(#SVGID_2_)">
		<text transform="matrix(1.00135 0 0 1 643.6875 384.87891)" font-family="'Helvetica'" font-size="18.14567">Address</text>
	</g>
	<path clip-path="url(#SVGID_2_)" fill="#FFFFFF" d="M665,304.62891c2.66211,2.65625,2.66211,6.96484,0,9.62305
		c-2.66016,2.65625-6.97461,2.65625-9.63477,0c-2.66211-2.6582-2.66211-6.9668,0-9.62305
		C658.02539,301.9707,662.33984,301.9707,665,304.62891"/>
	
		<path clip-path="url(#SVGID_2_)" fill="none" stroke="#000000" stroke-width="1.51316" stroke-linecap="round" stroke-linejoin="round" stroke-miterlimit="10" d="
		M665,304.62891c2.66211,2.65625,2.66211,6.96484,0,9.62305c-2.66016,2.65625-6.97461,2.65625-9.63477,0
		c-2.66211-2.6582-2.66211-6.9668,0-9.62305C658.02539,301.9707,662.33984,301.9707,665,304.62891"/>
	
		<line clip-path="url(#SVGID_2_)" fill="none" stroke="#000000" stroke-width="1.51316" stroke-linecap="round" stroke-linejoin="round" stroke-miterlimit="10" x1="652.6875" y1="310.50977" x2="612.48633" y2="316.24414"/>
	
		<line clip-path="url(#SVGID_2_)" fill="none" stroke="#000000" stroke-width="1.51316" stroke-miterlimit="10" x1="676.76367" y1="316.79297" x2="698.9707" y2="316.79297"/>
	
		<line clip-path="url(#SVGID_2_)" fill="none" stroke="#000000" stroke-width="1.51316" stroke-miterlimit="10" x1="705.14648" y1="316.79297" x2="706.54102" y2="316.79297"/>
	<g clip-path="url(#SVGID_2_)">
		<text transform="matrix(1.00135 0 0 1 676.7627 314.52539)" font-family="'Helvetica'" font-size="18.14567">City</text>
	</g>
	
		<line clip-path="url(#SVGID_2_)" fill="none" stroke="#000000" stroke-width="1.51316" stroke-linecap="round" stroke-linejoin="round" stroke-miterlimit="10" x1="636.25391" y1="147.34229" x2="620.05664" y2="147.38818"/>
	<g clip-path="url(#SVGID_2_)">
		<text transform="matrix(1.00135 0 0 1 663.19336 153.15576)" font-family="'Helvetica'" font-size="18.14567">Phone</text>
	</g>
	<path clip-path="url(#SVGID_2_)" fill="#FFFFFF" d="M650.91602,143.08936c2.66016,2.33398,2.66016,6.11621,0,8.4502
		c-2.66211,2.33301-6.97656,2.33301-9.63672,0c-2.66211-2.33398-2.66211-6.11621,0-8.4502
		C643.93945,140.75635,648.25391,140.75635,650.91602,143.08936"/>
	
		<path clip-path="url(#SVGID_2_)" fill="none" stroke="#000000" stroke-width="6.05264" stroke-linecap="round" stroke-linejoin="round" stroke-miterlimit="10" d="
		M650.91602,143.08936c2.66016,2.33398,2.66016,6.11621,0,8.4502c-2.66211,2.33301-6.97656,2.33301-9.63672,0
		c-2.66211-2.33398-2.66211-6.11621,0-8.4502C643.93945,140.75635,648.25391,140.75635,650.91602,143.08936"/>
	
		<path clip-path="url(#SVGID_2_)" fill="none" stroke="#FFFFFF" stroke-width="3.02632" stroke-linecap="round" stroke-linejoin="round" stroke-miterlimit="10" d="
		M650.91602,143.08936c2.66016,2.33398,2.66016,6.11621,0,8.4502c-2.66211,2.33301-6.97656,2.33301-9.63672,0
		c-2.66211-2.33398-2.66211-6.11621,0-8.4502C643.93945,140.75635,648.25391,140.75635,650.91602,143.08936"/>
	<path clip-path="url(#SVGID_2_)" fill="#FFFFFF" d="M84.2124,316.34766c2.66064,2.65625,2.66064,6.96484,0,9.62305
		c-2.66113,2.65625-6.97559,2.65625-9.63623,0c-2.66113-2.6582-2.66113-6.9668,0-9.62305
		C77.23682,313.68945,81.55127,313.68945,84.2124,316.34766"/>
	
		<path clip-path="url(#SVGID_2_)" fill="none" stroke="#000000" stroke-width="1.51316" stroke-linecap="round" stroke-linejoin="round" stroke-miterlimit="10" d="
		M84.21191,316.34766c2.66113,2.65625,2.66113,6.96484,0,9.62305c-2.66064,2.6582-6.9751,2.6582-9.63574,0
		c-2.66113-2.6582-2.66113-6.9668,0-9.62305C77.23682,313.68945,81.55127,313.68945,84.21191,316.34766"/>
	
		<line clip-path="url(#SVGID_2_)" fill="none" stroke="#000000" stroke-width="1.51316" stroke-linecap="round" stroke-linejoin="round" stroke-miterlimit="10" x1="86.96436" y1="321.27148" x2="102.04834" y2="321.49414"/>
	
		<line clip-path="url(#SVGID_2_)" fill="none" stroke="#000000" stroke-width="1.51316" stroke-miterlimit="10" x1="18.04004" y1="329.05859" x2="64.99414" y2="329.05859"/>
	<g clip-path="url(#SVGID_2_)">
		<text transform="matrix(1.00135 0 0 1 18.04004 326.78906)" font-family="'Helvetica'" font-size="18.14567">Name</text>
	</g>
	<path clip-path="url(#SVGID_2_)" fill="#FFFFFF" d="M84.26123,348.92969c2.66113,2.65625,2.66113,6.96484,0,9.62305
		c-2.66064,2.65625-6.9751,2.65625-9.63574,0c-2.66113-2.6582-2.66113-6.9668,0-9.62305
		C77.28613,346.27148,81.60059,346.27148,84.26123,348.92969"/>
	
		<path clip-path="url(#SVGID_2_)" fill="none" stroke="#000000" stroke-width="1.51316" stroke-linecap="round" stroke-linejoin="round" stroke-miterlimit="10" d="
		M84.26172,348.92969c2.66064,2.65625,2.66064,6.96484,0,9.62305c-2.66113,2.65625-6.97559,2.65625-9.63623,0
		c-2.66113-2.6582-2.66113-6.9668,0-9.62305C77.28613,346.27148,81.60059,346.27148,84.26172,348.92969"/>
	
		<line clip-path="url(#SVGID_2_)" fill="none" stroke="#000000" stroke-width="1.51316" stroke-linecap="round" stroke-linejoin="round" stroke-miterlimit="10" x1="87.01318" y1="353.61914" x2="102.04834" y2="353.37891"/>
	<g clip-path="url(#SVGID_2_)">
		<text transform="matrix(1.00135 0 0 1 11.33105 360.37305)" font-family="'Helvetica'" font-size="18.14567">Budget</text>
	</g>
	<path clip-path="url(#SVGID_2_)" fill="#FFFFFF" d="M283.42725,317.52734c2.66064,2.65625,2.66064,6.96484,0,9.62305
		c-2.66113,2.65625-6.97559,2.65625-9.63623,0c-2.66113-2.6582-2.66113-6.9668,0-9.62305
		C276.45166,314.86914,280.76611,314.86914,283.42725,317.52734"/>
	
		<path clip-path="url(#SVGID_2_)" fill="none" stroke="#000000" stroke-width="1.51316" stroke-linecap="round" stroke-linejoin="round" stroke-miterlimit="10" d="
		M283.42725,317.52734c2.66064,2.65625,2.66064,6.96484,0,9.62305c-2.66113,2.65625-6.9751,2.65625-9.63623,0
		c-2.66113-2.6582-2.66113-6.9668,0-9.62305C276.45215,314.86914,280.76611,314.86914,283.42725,317.52734"/>
	
		<line clip-path="url(#SVGID_2_)" fill="none" stroke="#000000" stroke-width="1.51316" stroke-linecap="round" stroke-linejoin="round" stroke-miterlimit="10" x1="271.03809" y1="322.33203" x2="253.46631" y2="322.31836"/>
	<g clip-path="url(#SVGID_2_)">
		<text transform="matrix(1.00135 0 0 1 290.02783 328.51172)" font-family="'Helvetica'" font-size="18.14567">Release Date</text>
	</g>
	<g clip-path="url(#SVGID_2_)">
		<text transform="matrix(1.00135 0 0 1 403.26367 328.9707)" font-family="'Helvetica'" font-size="18.14567">(0,1)</text>
	</g>
	<path clip-path="url(#SVGID_2_)" fill="#FFFFFF" d="M90.26904,112.82275c2.66064,2.65723,2.66064,6.96582,0,9.62305
		c-2.66113,2.65723-6.97559,2.65723-9.63623,0c-2.66113-2.65723-2.66113-6.96582,0-9.62305
		C83.29346,110.16553,87.60791,110.16553,90.26904,112.82275"/>
	
		<path clip-path="url(#SVGID_2_)" fill="none" stroke="#000000" stroke-width="1.51316" stroke-linecap="round" stroke-linejoin="round" stroke-miterlimit="10" d="
		M90.26904,112.82275c2.66064,2.65723,2.66064,6.96582,0,9.62305c-2.66113,2.65723-6.97559,2.65723-9.63623,0
		c-2.66113-2.65723-2.66113-6.96582,0-9.62305C83.29346,110.16553,87.60791,110.16553,90.26904,112.82275"/>
	
		<line clip-path="url(#SVGID_2_)" fill="none" stroke="#000000" stroke-width="1.51316" stroke-linecap="round" stroke-linejoin="round" stroke-miterlimit="10" x1="93.02051" y1="117.50342" x2="108.10547" y2="117.24365"/>
	<g clip-path="url(#SVGID_2_)">
		<text transform="matrix(1.00135 0 0 1 0.23291 122.66748)" font-family="'Helvetica'" font-size="18.14567">Surname</text>
	</g>
	<path clip-path="url(#SVGID_2_)" fill="#FFFFFF" d="M89.38916,135.85693c2.66064,2.6582,2.66064,6.96582,0,9.62402
		c-2.66113,2.65723-6.9751,2.65723-9.63623,0c-2.66113-2.6582-2.66113-6.96582,0-9.62402
		C82.41406,133.19971,86.72803,133.19971,89.38916,135.85693"/>
	
		<path clip-path="url(#SVGID_2_)" fill="none" stroke="#000000" stroke-width="1.51316" stroke-linecap="round" stroke-linejoin="round" stroke-miterlimit="10" d="
		M89.38916,135.85791c2.66064,2.65723,2.66064,6.96484,0,9.62305c-2.66113,2.65723-6.9751,2.65723-9.63623,0
		c-2.66113-2.6582-2.66113-6.96582,0-9.62305C82.41406,133.19971,86.72803,133.19971,89.38916,135.85791"/>
	
		<line clip-path="url(#SVGID_2_)" fill="none" stroke="#000000" stroke-width="1.51316" stroke-linecap="round" stroke-linejoin="round" stroke-miterlimit="10" x1="92.13818" y1="140.43311" x2="108.8623" y2="139.9126"/>
	<g clip-path="url(#SVGID_2_)">
		<text transform="matrix(1.00135 0 0 1 39.66602 145.70264)" font-family="'Helvetica'" font-size="18.14567">Age</text>
	</g>
	
		<line clip-path="url(#SVGID_2_)" fill="none" stroke="#000000" stroke-width="1.51316" stroke-linecap="round" stroke-linejoin="round" stroke-miterlimit="10" x1="662.57617" y1="124.03467" x2="668.16797" y2="124.03467"/>
	
		<line clip-path="url(#SVGID_2_)" fill="none" stroke="#000000" stroke-width="1.51316" stroke-linecap="round" stroke-linejoin="round" stroke-miterlimit="10" x1="672.50391" y1="124.03467" x2="678.0957" y2="124.03467"/>
	
		<line clip-path="url(#SVGID_2_)" fill="none" stroke="#000000" stroke-width="1.51316" stroke-linecap="round" stroke-linejoin="round" stroke-miterlimit="10" x1="682.43164" y1="124.03467" x2="688.02344" y2="124.03467"/>
	
		<line clip-path="url(#SVGID_2_)" fill="none" stroke="#000000" stroke-width="1.51316" stroke-linecap="round" stroke-linejoin="round" stroke-miterlimit="10" x1="692.35938" y1="124.03467" x2="697.95117" y2="124.03467"/>
	
		<line clip-path="url(#SVGID_2_)" fill="none" stroke="#000000" stroke-width="1.51316" stroke-linecap="round" stroke-linejoin="round" stroke-miterlimit="10" x1="702.28711" y1="124.03467" x2="707.87891" y2="124.03467"/>
</g>
</svg>
